<svg width="68" height="68" viewBox="0 0 68 68" fill="none" xmlns="http://www.w3.org/2000/svg">
<rect width="68" height="68" rx="34" fill="#EEEEEE"/>
<path fill-rule="evenodd" clip-rule="evenodd" d="M34 17.875C25.0944 17.875 17.875 25.0944 17.875 34C17.875 42.9056 25.0944 50.125 34 50.125C42.9056 50.125 50.125 42.9056 50.125 34C50.125 25.0944 42.9056 17.875 34 17.875ZM27.2957 33.9545C26.8563 33.5152 26.144 33.5152 25.7047 33.9545C25.2653 34.3939 25.2653 35.1061 25.7047 35.5455L30.2047 40.0455C30.644 40.4848 31.3564 40.4848 31.7956 40.0455L42.2956 29.5455C42.7349 29.1062 42.7349 28.3938 42.2956 27.9545C41.8562 27.5152 41.1441 27.5152 40.7047 27.9545L31.0002 37.6589L27.2957 33.9545Z" fill="#17B0D9"/>
</svg>
