<svg width="68" height="68" viewBox="0 0 68 68" fill="none" xmlns="http://www.w3.org/2000/svg">
<rect width="68" height="68" rx="34" fill="#EEEEEE"/>
<path d="M41.1253 21.34V19C41.1253 18.385 40.6153 17.875 40.0003 17.875C39.3853 17.875 38.8753 18.385 38.8753 19V21.25H29.1253V19C29.1253 18.385 28.6153 17.875 28.0003 17.875C27.3853 17.875 26.8753 18.385 26.8753 19V21.34C22.8253 21.715 20.8603 24.13 20.5603 27.715C20.5303 28.15 20.8903 28.51 21.3103 28.51H46.6903C47.1253 28.51 47.4853 28.135 47.4403 27.715C47.1403 24.13 45.1753 21.715 41.1253 21.34Z" fill="#17B0D9"/>
<path d="M44.5 38.5C41.185 38.5 38.5 41.185 38.5 44.5C38.5 45.625 38.815 46.69 39.37 47.59C40.405 49.33 42.31 50.5 44.5 50.5C46.69 50.5 48.595 49.33 49.63 47.59C50.185 46.69 50.5 45.625 50.5 44.5C50.5 41.185 47.815 38.5 44.5 38.5ZM47.605 43.855L44.41 46.81C44.2 47.005 43.915 47.11 43.645 47.11C43.36 47.11 43.075 47.005 42.85 46.78L41.365 45.295C40.93 44.86 40.93 44.14 41.365 43.705C41.8 43.27 42.52 43.27 42.955 43.705L43.675 44.425L46.075 42.205C46.525 41.785 47.245 41.815 47.665 42.265C48.085 42.715 48.055 43.42 47.605 43.855Z" fill="#17B0D9"/>
<path d="M46 30.76H22C21.175 30.76 20.5 31.435 20.5 32.26V41.5C20.5 46 22.75 49 28 49H35.395C36.43 49 37.15 47.995 36.82 47.02C36.52 46.15 36.265 45.19 36.265 44.5C36.265 39.955 39.97 36.25 44.515 36.25C44.95 36.25 45.385 36.28 45.805 36.355C46.705 36.49 47.515 35.785 47.515 34.885V32.275C47.5 31.435 46.825 30.76 46 30.76ZM29.815 43.315C29.53 43.585 29.14 43.75 28.75 43.75C28.36 43.75 27.97 43.585 27.685 43.315C27.415 43.03 27.25 42.64 27.25 42.25C27.25 41.86 27.415 41.47 27.685 41.185C27.835 41.05 27.985 40.945 28.18 40.87C28.735 40.63 29.395 40.765 29.815 41.185C30.085 41.47 30.25 41.86 30.25 42.25C30.25 42.64 30.085 43.03 29.815 43.315ZM29.815 38.065C29.74 38.125 29.665 38.185 29.59 38.245C29.5 38.305 29.41 38.35 29.32 38.38C29.23 38.425 29.14 38.455 29.05 38.47C28.945 38.485 28.84 38.5 28.75 38.5C28.36 38.5 27.97 38.335 27.685 38.065C27.415 37.78 27.25 37.39 27.25 37C27.25 36.61 27.415 36.22 27.685 35.935C28.03 35.59 28.555 35.425 29.05 35.53C29.14 35.545 29.23 35.575 29.32 35.62C29.41 35.65 29.5 35.695 29.59 35.755C29.665 35.815 29.74 35.875 29.815 35.935C30.085 36.22 30.25 36.61 30.25 37C30.25 37.39 30.085 37.78 29.815 38.065ZM35.065 38.065C34.78 38.335 34.39 38.5 34 38.5C33.61 38.5 33.22 38.335 32.935 38.065C32.665 37.78 32.5 37.39 32.5 37C32.5 36.61 32.665 36.22 32.935 35.935C33.505 35.38 34.51 35.38 35.065 35.935C35.335 36.22 35.5 36.61 35.5 37C35.5 37.39 35.335 37.78 35.065 38.065Z" fill="#17B0D9"/>
</svg>
