<svg width="68" height="68" viewBox="0 0 68 68" fill="none" xmlns="http://www.w3.org/2000/svg">
<rect width="68" height="68" rx="34" fill="#EEEEEE"/>
<path d="M44.6799 38.41L45.1599 39.385C45.3999 39.865 46.0149 40.315 46.5249 40.405L47.1699 40.51C49.1349 40.84 49.5849 42.28 48.1899 43.69L47.5899 44.29C47.1849 44.695 46.9749 45.475 47.0949 46.045L47.1699 46.405C47.7099 48.775 46.4499 49.69 44.3949 48.445L43.9599 48.175C43.4349 47.86 42.5649 47.86 42.0399 48.175L41.6049 48.445C39.5349 49.69 38.2899 48.775 38.8299 46.405L38.9049 46.045C39.0249 45.49 38.8149 44.695 38.4099 44.29L37.8099 43.69C36.4149 42.265 36.8649 40.84 38.8299 40.51L39.4749 40.405C39.9999 40.315 40.5999 39.865 40.8399 39.385L41.3199 38.41C42.2499 36.535 43.7499 36.535 44.6799 38.41Z" fill="#17B0D9"/>
<path d="M40.285 19H27.715C22.255 19 19 22.255 19 27.715V40.285C19 45.745 22.255 49 27.715 49H35.635C36.16 49 36.535 48.46 36.475 47.935C36.415 47.365 36.445 46.69 36.625 45.91C36.655 45.805 36.625 45.685 36.535 45.595L36.205 45.265C34.93 43.975 34.465 42.415 34.915 40.99C35.38 39.58 36.67 38.59 38.455 38.29L38.905 38.215L39.31 37.405C40.135 35.725 41.485 34.75 43 34.75C44.515 34.75 45.865 35.725 46.69 37.405L46.915 37.87C47.02 38.095 47.23 38.245 47.47 38.29C47.605 38.32 47.74 38.35 47.875 38.38C48.4 38.515 49 38.095 49 37.54V27.715C49 22.255 45.745 19 40.285 19ZM40.39 29.44L36.925 33.91C36.49 34.465 35.875 34.825 35.17 34.9C34.48 34.99 33.775 34.795 33.235 34.36L30.49 32.23C30.385 32.14 30.265 32.14 30.205 32.155C30.145 32.155 30.04 32.185 29.95 32.305L26.38 36.94C26.155 37.225 25.825 37.375 25.48 37.375C25.24 37.375 25 37.3 24.79 37.135C24.295 36.76 24.205 36.055 24.58 35.56L28.15 30.925C28.585 30.37 29.2 30.01 29.905 29.92C30.61 29.83 31.3 30.025 31.855 30.46L34.6 32.62C34.705 32.71 34.81 32.695 34.885 32.695C34.945 32.695 35.05 32.665 35.14 32.545L38.605 28.075C38.98 27.58 39.685 27.49 40.18 27.88C40.69 28.255 40.765 28.96 40.39 29.44Z" fill="#17B0D9"/>
</svg>
