<svg width="68" height="68" viewBox="0 0 68 68" fill="none" xmlns="http://www.w3.org/2000/svg">
<rect width="68" height="68" rx="34" fill="#EEEEEE"/>
<path d="M41.5 19.645H26.5C22 19.645 19 22.645 19 27.145V36.145C19 40.645 22 43.645 26.5 43.645H32.5L39.175 48.085C40.165 48.745 41.5 48.04 41.5 46.84V43.645C46 43.645 49 40.645 49 36.145V27.145C49 22.645 46 19.645 41.5 19.645ZM39.25 32.875H28.75C28.135 32.875 27.625 32.365 27.625 31.75C27.625 31.135 28.135 30.625 28.75 30.625H39.25C39.865 30.625 40.375 31.135 40.375 31.75C40.375 32.365 39.865 32.875 39.25 32.875Z" fill="#17B0D9"/>
</svg>
