<svg width="68" height="68" viewBox="0 0 68 68" fill="none" xmlns="http://www.w3.org/2000/svg">
<rect width="68" height="68" rx="34" fill="#EEEEEE"/>
<path d="M23.815 36.265C22.18 36.16 20.5 36.76 19.255 38.005C16.915 40.345 16.915 44.14 19.255 46.495C20.05 47.29 21.025 47.815 22.06 48.07C22.63 48.22 23.23 48.265 23.83 48.235C25.255 48.175 26.65 47.605 27.745 46.51C29.29 44.965 29.815 42.79 29.32 40.825C29.08 39.79 28.54 38.815 27.745 38.02C26.665 36.925 25.255 36.34 23.815 36.265ZM26.86 42.22C26.86 42.535 26.74 42.805 26.53 43.015C26.32 43.225 26.05 43.345 25.735 43.345H24.625V44.515C24.625 44.83 24.505 45.1 24.295 45.31C24.085 45.52 23.815 45.64 23.5 45.64C22.885 45.64 22.375 45.13 22.375 44.515V43.345H21.25C20.635 43.345 20.125 42.835 20.125 42.22C20.125 41.605 20.635 41.095 21.25 41.095H22.375V40.03C22.375 39.415 22.885 38.905 23.5 38.905C24.115 38.905 24.625 39.415 24.625 40.03V41.095H25.735C26.365 41.095 26.86 41.605 26.86 42.22Z" fill="#17B0D9"/>
<path d="M41.875 19.645H27.625C23.35 19.645 20.5 22.495 20.5 26.77V33.46C20.5 33.985 21.04 34.36 21.55 34.225C22.18 34.075 22.825 34 23.5 34C27.79 34 31.33 37.48 31.72 41.695C31.75 42.115 32.095 42.445 32.5 42.445H33.325L39.67 46.675C40.6 47.305 41.875 46.615 41.875 45.475V42.445C44.005 42.445 45.79 41.725 47.035 40.495C48.28 39.235 49 37.45 49 35.32V26.77C49 22.495 46.15 19.645 41.875 19.645ZM39.745 32.215H29.755C29.17 32.215 28.69 31.735 28.69 31.15C28.69 30.55 29.17 30.07 29.755 30.07H39.745C40.33 30.07 40.81 30.55 40.81 31.15C40.81 31.735 40.33 32.215 39.745 32.215Z" fill="#17B0D9"/>
</svg>
