<svg width="68" height="68" viewBox="0 0 68 68" fill="none" xmlns="http://www.w3.org/2000/svg">
<rect width="68" height="68" rx="34" fill="#EEEEEE"/>
<path d="M42.2955 27.655C42.1905 27.64 42.0855 27.64 41.9805 27.655C39.6555 27.58 37.8105 25.675 37.8105 23.335C37.8105 20.95 39.7455 19 42.1455 19C44.5305 19 46.4805 20.935 46.4805 23.335C46.4655 25.675 44.6205 27.58 42.2955 27.655Z" fill="#17B0D9"/>
<path d="M47.1854 38.05C45.5054 39.175 43.1504 39.595 40.9754 39.31C41.5454 38.08 41.8454 36.715 41.8604 35.275C41.8604 33.775 41.5304 32.35 40.9004 31.105C43.1204 30.805 45.4754 31.225 47.1704 32.35C49.5404 33.91 49.5404 36.475 47.1854 38.05Z" fill="#17B0D9"/>
<path d="M25.6602 27.655C25.7652 27.64 25.8702 27.64 25.9752 27.655C28.3002 27.58 30.1452 25.675 30.1452 23.335C30.1452 20.935 28.2102 19 25.8102 19C23.4252 19 21.4902 20.935 21.4902 23.335C21.4902 25.675 23.3352 27.58 25.6602 27.655Z" fill="#17B0D9"/>
<path d="M25.8247 35.275C25.8247 36.73 26.1397 38.11 26.7097 39.355C24.5947 39.58 22.3897 39.13 20.7697 38.065C18.3997 36.49 18.3997 33.925 20.7697 32.35C22.3747 31.27 24.6397 30.835 26.7697 31.075C26.1547 32.335 25.8247 33.76 25.8247 35.275Z" fill="#17B0D9"/>
<path d="M34.1792 39.805C34.0592 39.79 33.9242 39.79 33.7892 39.805C31.0292 39.715 28.8242 37.45 28.8242 34.66C28.8392 31.81 31.1342 29.5 33.9992 29.5C36.8492 29.5 39.1592 31.81 39.1592 34.66C39.1442 37.45 36.9542 39.715 34.1792 39.805Z" fill="#17B0D9"/>
<path d="M29.3042 42.91C27.0392 44.425 27.0392 46.915 29.3042 48.415C31.8842 50.14 36.1142 50.14 38.6942 48.415C40.9592 46.9 40.9592 44.41 38.6942 42.91C36.1292 41.185 31.8992 41.185 29.3042 42.91Z" fill="#17B0D9"/>
</svg>
