<svg width="68" height="68" viewBox="0 0 68 68" fill="none" xmlns="http://www.w3.org/2000/svg">
<rect width="68" height="68" rx="34" fill="#EEEEEE"/>
<path fill-rule="evenodd" clip-rule="evenodd" d="M17.875 40.75C17.875 35.5723 22.0723 31.375 27.25 31.375C32.4277 31.375 36.625 35.5723 36.625 40.75C36.625 45.9277 32.4277 50.125 27.25 50.125C25.6966 50.125 24.2288 49.7464 22.9366 49.0758L19.6184 49.6934C19.2538 49.7614 18.8792 49.6452 18.617 49.3829C18.3548 49.1208 18.2386 48.7462 18.3065 48.3815L18.9243 45.0634C18.2537 43.7712 17.875 42.3034 17.875 40.75Z" fill="#17B0D9"/>
<path fill-rule="evenodd" clip-rule="evenodd" d="M50.1248 31C50.1248 23.7513 44.2487 17.875 36.9998 17.875C30.6016 17.875 24.8529 22.7489 24.0063 29.1382C24.0056 29.1409 24.005 29.1427 24.0045 29.1439C24.006 29.1229 24.0049 29.1259 24.0039 29.1326C24.0029 29.1394 24.0021 29.15 24.0045 29.1439C24.0033 29.1596 24.0007 29.1885 23.9954 29.2389C23.9894 29.2983 23.9814 29.3828 23.9729 29.4899C23.9702 29.523 23.9675 29.5583 23.9648 29.5957C25.0066 29.2894 26.1091 29.125 27.25 29.125C33.6704 29.125 38.8749 34.3297 38.8749 40.75C38.8749 41.8887 38.7113 42.989 38.4062 44.0289C38.5245 44.0197 38.6289 44.0104 38.718 44.0017C38.828 43.9911 38.9147 43.9813 38.9756 43.9739L39.0474 43.9651L39.0683 43.9624L39.0747 43.9615L39.0771 43.9612L39.0788 43.9609L39.1023 43.9575C40.5602 43.7225 41.9376 43.2475 43.1927 42.5747L48.194 43.5059C48.5585 43.5739 48.9332 43.4577 49.1954 43.1954C49.4576 42.9333 49.5737 42.5587 49.5059 42.194L48.5747 37.1927C49.5641 35.3472 50.1248 33.2375 50.1248 31Z" fill="#17B0D9"/>
</svg>
