<svg width="68" height="68" viewBox="0 0 68 68" fill="none" xmlns="http://www.w3.org/2000/svg">
<rect width="68" height="68" rx="34" fill="#EEEEEE"/>
<path d="M34 19C30.07 19 26.875 22.195 26.875 26.125C26.875 29.98 29.89 33.1 33.82 33.235C33.94 33.22 34.06 33.22 34.15 33.235C34.18 33.235 34.195 33.235 34.225 33.235C34.24 33.235 34.24 33.235 34.255 33.235C38.095 33.1 41.11 29.98 41.125 26.125C41.125 22.195 37.93 19 34 19Z" fill="#17B0D9"/>
<path d="M41.6195 37.225C37.4345 34.435 30.6095 34.435 26.3945 37.225C24.4895 38.5 23.4395 40.225 23.4395 42.07C23.4395 43.915 24.4895 45.625 26.3795 46.885C28.4795 48.295 31.2395 49 33.9995 49C36.7595 49 39.5195 48.295 41.6195 46.885C43.5095 45.61 44.5595 43.9 44.5595 42.04C44.5445 40.195 43.5095 38.485 41.6195 37.225Z" fill="#17B0D9"/>
</svg>
