<svg width="68" height="68" viewBox="0 0 68 68" fill="none" xmlns="http://www.w3.org/2000/svg">
<rect width="68" height="68" rx="34" fill="#EEEEEE"/>
<path d="M41.1253 21.34V19C41.1253 18.385 40.6153 17.875 40.0003 17.875C39.3853 17.875 38.8753 18.385 38.8753 19V21.25H29.1253V19C29.1253 18.385 28.6153 17.875 28.0003 17.875C27.3853 17.875 26.8753 18.385 26.8753 19V21.34C22.8253 21.715 20.8603 24.13 20.5603 27.715C20.5303 28.15 20.8903 28.51 21.3103 28.51H46.6903C47.1253 28.51 47.4853 28.135 47.4403 27.715C47.1403 24.13 45.1753 21.715 41.1253 21.34Z" fill="#17B0D9"/>
<path d="M46 30.76H22C21.175 30.76 20.5 31.435 20.5 32.26V41.5C20.5 46 22.75 49 28 49H40C45.25 49 47.5 46 47.5 41.5V32.26C47.5 31.435 46.825 30.76 46 30.76ZM29.815 43.315C29.665 43.45 29.5 43.555 29.32 43.63C29.14 43.705 28.945 43.75 28.75 43.75C28.555 43.75 28.36 43.705 28.18 43.63C28 43.555 27.835 43.45 27.685 43.315C27.415 43.03 27.25 42.64 27.25 42.25C27.25 41.86 27.415 41.47 27.685 41.185C27.835 41.05 28 40.945 28.18 40.87C28.54 40.72 28.96 40.72 29.32 40.87C29.5 40.945 29.665 41.05 29.815 41.185C30.085 41.47 30.25 41.86 30.25 42.25C30.25 42.64 30.085 43.03 29.815 43.315ZM30.13 37.57C30.055 37.75 29.95 37.915 29.815 38.065C29.665 38.2 29.5 38.305 29.32 38.38C29.14 38.455 28.945 38.5 28.75 38.5C28.555 38.5 28.36 38.455 28.18 38.38C28 38.305 27.835 38.2 27.685 38.065C27.55 37.915 27.445 37.75 27.37 37.57C27.295 37.39 27.25 37.195 27.25 37C27.25 36.805 27.295 36.61 27.37 36.43C27.445 36.25 27.55 36.085 27.685 35.935C27.835 35.8 28 35.695 28.18 35.62C28.54 35.47 28.96 35.47 29.32 35.62C29.5 35.695 29.665 35.8 29.815 35.935C29.95 36.085 30.055 36.25 30.13 36.43C30.205 36.61 30.25 36.805 30.25 37C30.25 37.195 30.205 37.39 30.13 37.57ZM35.065 38.065C34.915 38.2 34.75 38.305 34.57 38.38C34.39 38.455 34.195 38.5 34 38.5C33.805 38.5 33.61 38.455 33.43 38.38C33.25 38.305 33.085 38.2 32.935 38.065C32.665 37.78 32.5 37.39 32.5 37C32.5 36.61 32.665 36.22 32.935 35.935C33.085 35.8 33.25 35.695 33.43 35.62C33.79 35.455 34.21 35.455 34.57 35.62C34.75 35.695 34.915 35.8 35.065 35.935C35.335 36.22 35.5 36.61 35.5 37C35.5 37.39 35.335 37.78 35.065 38.065Z" fill="#17B0D9"/>
</svg>
