<svg width="68" height="68" viewBox="0 0 68 68" fill="none" xmlns="http://www.w3.org/2000/svg">
<rect width="68" height="68" rx="34" fill="#EEEEEE"/>
<path d="M41.1253 21.34V19C41.1253 18.385 40.6153 17.875 40.0003 17.875C39.3853 17.875 38.8753 18.385 38.8753 19V21.25H29.1253V19C29.1253 18.385 28.6153 17.875 28.0003 17.875C27.3853 17.875 26.8753 18.385 26.8753 19V21.34C22.8253 21.715 20.8603 24.13 20.5603 27.715C20.5303 28.15 20.8903 28.51 21.3103 28.51H46.6903C47.1253 28.51 47.4853 28.135 47.4403 27.715C47.1403 24.13 45.1753 21.715 41.1253 21.34Z" fill="#17B0D9"/>
<path d="M46 30.76H22C21.175 30.76 20.5 31.435 20.5 32.26V41.5C20.5 46 22.75 49 28 49H40C45.25 49 47.5 46 47.5 41.5V32.26C47.5 31.435 46.825 30.76 46 30.76ZM38.26 38.485L37.51 39.25H37.495L32.95 43.795C32.755 43.99 32.35 44.2 32.065 44.23L30.04 44.53C29.305 44.635 28.795 44.11 28.9 43.39L29.185 41.35C29.23 41.065 29.425 40.675 29.62 40.465L34.18 35.92L34.93 35.155C35.425 34.66 35.98 34.3 36.58 34.3C37.09 34.3 37.645 34.54 38.26 35.155C39.61 36.505 39.175 37.57 38.26 38.485Z" fill="#17B0D9"/>
</svg>
