<svg width="68" height="68" viewBox="0 0 68 68" fill="none" xmlns="http://www.w3.org/2000/svg">
<rect width="68" height="68" rx="34" fill="#EEEEEE"/>
<path d="M47.75 21.2812H20.25C19.6863 21.2812 19.2188 20.8138 19.2188 20.25C19.2188 19.6863 19.6863 19.2188 20.25 19.2188H47.75C48.3137 19.2188 48.7812 19.6863 48.7812 20.25C48.7812 20.8138 48.3137 21.2812 47.75 21.2812Z" fill="#17B0D9"/>
<path d="M40.4204 48.2175C40.2416 48.575 39.8704 48.7812 39.4991 48.7812C39.3479 48.7812 39.1829 48.74 39.0454 48.6713L33.9991 46.155L28.9529 48.6713C28.8154 48.74 28.6504 48.7812 28.4991 48.7812C28.1279 48.7812 27.7566 48.575 27.5779 48.2175C27.3166 47.695 27.5229 47.0763 28.0454 46.8287L32.9679 44.3675V40.875H35.0304V44.3675L39.9529 46.8287C40.4754 47.0763 40.6816 47.695 40.4204 48.2175Z" fill="#17B0D9"/>
<path d="M21.625 21.3958V38.0333C21.625 40.6458 23 42.0208 25.6125 42.0208H42.3875C45 42.0208 46.375 40.6458 46.375 38.0333V21.3958H21.625ZM40.8475 30.4433L36.5162 34.0596C36.1175 34.3896 35.6087 34.5271 35.1275 34.4446C34.6325 34.3621 34.2063 34.0596 33.945 33.6196L32.5012 31.2133L28.4725 34.5683C28.28 34.7333 28.0462 34.8021 27.8125 34.8021C27.5237 34.8021 27.2213 34.6783 27.015 34.4308C26.6438 33.9908 26.7125 33.3446 27.1525 32.9733L31.4838 29.3571C31.8825 29.0271 32.3913 28.8896 32.8725 28.9721C33.3675 29.0546 33.7937 29.3571 34.055 29.7971L35.4988 32.2033L39.5275 28.8483C39.9675 28.4771 40.6138 28.5458 40.985 28.9858C41.3425 29.4258 41.2875 30.0721 40.8475 30.4433Z" fill="#17B0D9"/>
</svg>
