<svg width="342" height="337" viewBox="0 0 342 337" fill="none" xmlns="http://www.w3.org/2000/svg">
<g clip-path="url(#clip0_3230_18138)">
<path d="M92.5 205.5H247.5" stroke="#3C50E0" stroke-width="15" stroke-linecap="round"/>
<path d="M184 206.5L171 261L158.5 206.5H184Z" fill="#3C50E0" stroke="#3C50E0" stroke-linecap="round"/>
<path d="M5.5 161.5L25 259.5L103.5 261.5V328.5" stroke="#3C50E0" stroke-width="10" stroke-linecap="round"/>
<path d="M54 142V229.088C54 231.815 56.1845 234.039 58.9107 234.088L132.97 235.41C135.743 235.46 137.946 237.757 137.88 240.529L136 319" stroke="#3C50E0" stroke-width="35" stroke-linecap="round"/>
<path d="M54.5 142.5L84.4773 178.012C85.9594 179.767 88.4471 180.287 90.508 179.271L121.5 164" stroke="#3C50E0" stroke-width="30" stroke-linecap="round"/>
<path d="M62 119.5C78.2924 119.5 91.5 106.292 91.5 90C91.5 73.7076 78.2924 60.5 62 60.5C45.7076 60.5 32.5 73.7076 32.5 90C32.5 106.292 45.7076 119.5 62 119.5Z" fill="#3C50E0" stroke="#3C50E0"/>
<path d="M25.5 260.5L6.5 326.5" stroke="#3C50E0" stroke-width="10" stroke-linecap="round"/>
<path d="M5.5 161.5L25 259.5L103.5 261.5V328.5" stroke="#3C50E0" stroke-width="10" stroke-linecap="round"/>
<path d="M54 142V229.088C54 231.815 56.1845 234.039 58.9107 234.088L132.97 235.41C135.743 235.46 137.946 237.757 137.88 240.529L136 319" stroke="#3C50E0" stroke-width="35" stroke-linecap="round"/>
<path d="M54.5 142.5L84.4773 178.012C85.9594 179.767 88.4471 180.287 90.508 179.271L121.5 164" stroke="#3C50E0" stroke-width="30" stroke-linecap="round"/>
<path d="M62 119.5C78.2924 119.5 91.5 106.292 91.5 90C91.5 73.7076 78.2924 60.5 62 60.5C45.7076 60.5 32.5 73.7076 32.5 90C32.5 106.292 45.7076 119.5 62 119.5Z" fill="#3C50E0" stroke="#3C50E0"/>
<path d="M316.5 260.5L335.5 326.5" stroke="#3C50E0" stroke-width="10" stroke-linecap="round"/>
<path d="M336.5 161.5L317 259.5L238.5 261.5V328.5" stroke="#3C50E0" stroke-width="10" stroke-linecap="round"/>
<path d="M288.001 142V229.088C288.001 231.815 285.816 234.039 283.09 234.088L209.031 235.41C206.258 235.46 204.055 237.757 204.121 240.529L206.001 319" stroke="#3C50E0" stroke-width="35" stroke-linecap="round"/>
<path d="M287.5 142.5L257.523 178.012C256.041 179.767 253.553 180.287 251.492 179.271L220.5 164" stroke="#3C50E0" stroke-width="30" stroke-linecap="round"/>
<path d="M280 119.5C263.708 119.5 250.5 106.292 250.5 90C250.5 73.7076 263.708 60.5 280 60.5C296.292 60.5 309.5 73.7076 309.5 90C309.5 106.292 296.292 119.5 280 119.5Z" fill="#3C50E0" stroke="#3C50E0"/>
<path d="M190.5 92.5C215.905 92.5 236.5 71.9051 236.5 46.5C236.5 21.0949 215.905 0.5 190.5 0.5C165.095 0.5 144.5 21.0949 144.5 46.5C144.5 71.9051 165.095 92.5 190.5 92.5Z" fill="#3C50E0" stroke="#3C50E0"/>
<path d="M228.5 73L236.5 100L208.959 89.6722L228.5 73Z" fill="#3C50E0"/>
<path d="M208.5 89.5L208.959 89.6722M208.959 89.6722L236.5 100L228.5 73L208.959 89.6722Z" stroke="#3C50E0" stroke-linecap="round"/>
<path d="M104.494 46.5C104.494 71.9051 125.089 92.5 150.494 92.5C152.024 92.5 153.324 92.5094 154.423 92.5173C155.641 92.526 156.61 92.533 157.365 92.5234C157.943 92.5161 158.373 92.499 158.68 92.4687C158.45 92.291 158.134 92.0714 157.729 91.7954C157.65 91.7412 157.568 91.6851 157.483 91.6271C156.528 90.9771 155.223 90.0884 153.728 88.8896C147.188 83.6478 137.061 72.5246 135.497 49.0332C133.986 26.3355 144.132 13.9481 151.414 7.25685C152.85 5.93645 154.178 4.83548 155.272 3.92879C155.558 3.69117 155.829 3.46689 156.081 3.2555C156.693 2.74291 157.189 2.31238 157.554 1.94725C157.934 1.56791 158.115 1.31422 158.171 1.15826C158.18 1.13321 158.184 1.11663 158.185 1.10692C158.179 1.09957 158.166 1.08777 158.144 1.07204C158.004 0.971462 157.679 0.85146 157.045 0.753959C155.807 0.563535 153.712 0.5 150.494 0.5C125.089 0.5 104.494 21.0949 104.494 46.5ZM159.145 92.3824C159.145 92.3824 159.145 92.3826 159.144 92.3832L159.145 92.3824ZM159.029 92.7843C159.031 92.7892 159.033 92.7917 159.033 92.7918C159.033 92.7919 159.032 92.7894 159.029 92.7843Z" fill="#3C50E0"/>
<path d="M158.186 1.09597C158.186 1.096 158.186 1.09667 158.186 1.09792M158.191 1.11377C158.192 1.11514 158.192 1.11581 158.192 1.1158M104.494 46.5C104.494 71.9051 125.089 92.5 150.494 92.5C152.024 92.5 153.324 92.5094 154.423 92.5173C155.641 92.526 156.61 92.533 157.365 92.5234C157.943 92.5161 158.373 92.499 158.68 92.4687C158.45 92.291 158.134 92.0714 157.729 91.7954C157.65 91.7412 157.568 91.6851 157.483 91.6271C156.528 90.9771 155.223 90.0884 153.728 88.8896C147.188 83.6478 137.061 72.5246 135.497 49.0332C133.986 26.3355 144.132 13.9481 151.414 7.25685C152.85 5.93645 154.178 4.83548 155.272 3.92879C155.558 3.69117 155.829 3.46689 156.081 3.2555C156.693 2.74291 157.189 2.31238 157.554 1.94725C157.934 1.56791 158.115 1.31422 158.171 1.15826C158.18 1.13321 158.184 1.11663 158.185 1.10692C158.179 1.09957 158.166 1.08777 158.144 1.07204C158.004 0.971462 157.679 0.85146 157.045 0.753959C155.807 0.563535 153.712 0.5 150.494 0.5C125.089 0.5 104.494 21.0949 104.494 46.5ZM159.145 92.3824C159.145 92.3824 159.145 92.3826 159.144 92.3832L159.145 92.3824ZM159.029 92.7843C159.031 92.7892 159.033 92.7917 159.033 92.7918C159.033 92.7919 159.032 92.7894 159.029 92.7843Z" stroke="#3C50E0"/>
<path d="M112.494 73L104.494 100L132.035 89.6722L112.494 73Z" fill="#3C50E0"/>
<path d="M132.494 89.5L132.035 89.6722M132.035 89.6722L104.494 100L112.494 73L132.035 89.6722Z" stroke="#3C50E0" stroke-linecap="round"/>
</g>
<defs>
<clipPath id="clip0_3230_18138">
<rect width="342" height="337" fill="white"/>
</clipPath>
</defs>
</svg>
